<svg xmlns="http://www.w3.org/2000/svg" width="420" height="260" viewBox="0 0 420 260" fill="none">
  <g stroke="#1E5C0A" stroke-width="2.2" stroke-linecap="round" stroke-linejoin="round" opacity="0.55">
    <path d="M74 47 112 69v44l-38 22-38-22V69l38-22Z"/>
    <path d="M150 47 188 69v44l-38 22-38-22V69l38-22Z"/>
    <path d="M226 47 264 69v44l-38 22-38-22V69l38-22Z"/>
    <path d="M302 47 340 69v44l-38 22-38-22V69l38-22Z"/>
    <path d="M112 69h38M188 69h38M264 69h38"/>
    <path d="M112 113h38M188 113h38M264 113h38"/>
    <circle cx="74" cy="47" r="5"/>
    <circle cx="112" cy="69" r="5"/>
    <circle cx="112" cy="113" r="5"/>
    <circle cx="74" cy="135" r="5"/>
    <circle cx="36" cy="113" r="5"/>
    <circle cx="36" cy="69" r="5"/>
    <circle cx="150" cy="47" r="5"/>
    <circle cx="188" cy="69" r="5"/>
    <circle cx="188" cy="113" r="5"/>
    <circle cx="150" cy="135" r="5"/>
    <circle cx="226" cy="47" r="5"/>
    <circle cx="264" cy="69" r="5"/>
    <circle cx="264" cy="113" r="5"/>
    <circle cx="226" cy="135" r="5"/>
    <circle cx="302" cy="47" r="5"/>
    <circle cx="340" cy="69" r="5"/>
    <circle cx="340" cy="113" r="5"/>
    <circle cx="302" cy="135" r="5"/>
    <path d="M86 154 124 176v44l-38 22-38-22v-44l38-22Z"/>
    <path d="M162 154 200 176v44l-38 22-38-22v-44l38-22Z"/>
    <path d="M238 154 276 176v44l-38 22-38-22v-44l38-22Z"/>
    <path d="M124 176h38M200 176h38"/>
    <path d="M124 220h38M200 220h38"/>
    <circle cx="86" cy="154" r="5"/>
    <circle cx="124" cy="176" r="5"/>
    <circle cx="124" cy="220" r="5"/>
    <circle cx="86" cy="242" r="5"/>
    <circle cx="48" cy="220" r="5"/>
    <circle cx="48" cy="176" r="5"/>
    <circle cx="162" cy="154" r="5"/>
    <circle cx="200" cy="176" r="5"/>
    <circle cx="200" cy="220" r="5"/>
    <circle cx="162" cy="242" r="5"/>
    <circle cx="238" cy="154" r="5"/>
    <circle cx="276" cy="176" r="5"/>
    <circle cx="276" cy="220" r="5"/>
    <circle cx="238" cy="242" r="5"/>
  </g>
</svg>
